<mxfile host="app.diagrams.net" modified="2021-04-12T06:34:16.570Z" agent="5.0 (Windows)" etag="RaHvZGflzXbyg44fCBtn" version="14.5.10" type="github">
  <diagram id="QJ-M9dAqX3-2-o2Iueh3" name="第 1 页">
    <mxGraphModel dx="1422" dy="767" grid="1" gridSize="10" guides="1" tooltips="1" connect="1" arrows="1" fold="1" page="1" pageScale="1" pageWidth="1920" pageHeight="1200" math="0" shadow="0">
      <root>
        <mxCell id="0" />
        <mxCell id="1" parent="0" />
        <mxCell id="w2se8LOjkHO6Jgg3hvdt-7" style="edgeStyle=orthogonalEdgeStyle;rounded=0;orthogonalLoop=1;jettySize=auto;html=1;entryX=0.5;entryY=0;entryDx=0;entryDy=0;exitX=0.5;exitY=1;exitDx=0;exitDy=0;" edge="1" parent="1" source="w2se8LOjkHO6Jgg3hvdt-1" target="w2se8LOjkHO6Jgg3hvdt-2">
          <mxGeometry relative="1" as="geometry" />
        </mxCell>
        <mxCell id="w2se8LOjkHO6Jgg3hvdt-8" style="edgeStyle=orthogonalEdgeStyle;rounded=0;orthogonalLoop=1;jettySize=auto;html=1;entryX=0.5;entryY=0;entryDx=0;entryDy=0;" edge="1" parent="1" source="w2se8LOjkHO6Jgg3hvdt-1" target="w2se8LOjkHO6Jgg3hvdt-6">
          <mxGeometry relative="1" as="geometry">
            <Array as="points">
              <mxPoint x="330" y="230" />
              <mxPoint x="330" y="230" />
            </Array>
          </mxGeometry>
        </mxCell>
        <mxCell id="w2se8LOjkHO6Jgg3hvdt-9" style="edgeStyle=orthogonalEdgeStyle;rounded=0;orthogonalLoop=1;jettySize=auto;html=1;" edge="1" parent="1" source="w2se8LOjkHO6Jgg3hvdt-1" target="w2se8LOjkHO6Jgg3hvdt-5">
          <mxGeometry relative="1" as="geometry">
            <Array as="points">
              <mxPoint x="330" y="280" />
              <mxPoint x="480" y="280" />
            </Array>
          </mxGeometry>
        </mxCell>
        <mxCell id="w2se8LOjkHO6Jgg3hvdt-1" value="大流程X" style="rounded=0;whiteSpace=wrap;html=1;fillColor=#f8cecc;strokeColor=#b85450;" vertex="1" parent="1">
          <mxGeometry x="270" y="170" width="120" height="60" as="geometry" />
        </mxCell>
        <mxCell id="w2se8LOjkHO6Jgg3hvdt-2" value="子流程X1" style="rounded=0;whiteSpace=wrap;html=1;fillColor=#d5e8d4;strokeColor=#82b366;" vertex="1" parent="1">
          <mxGeometry x="110" y="330" width="120" height="60" as="geometry" />
        </mxCell>
        <mxCell id="w2se8LOjkHO6Jgg3hvdt-12" style="edgeStyle=orthogonalEdgeStyle;rounded=0;orthogonalLoop=1;jettySize=auto;html=1;entryX=0.5;entryY=0;entryDx=0;entryDy=0;" edge="1" parent="1" source="w2se8LOjkHO6Jgg3hvdt-5" target="w2se8LOjkHO6Jgg3hvdt-10">
          <mxGeometry relative="1" as="geometry" />
        </mxCell>
        <mxCell id="w2se8LOjkHO6Jgg3hvdt-13" style="edgeStyle=orthogonalEdgeStyle;rounded=0;orthogonalLoop=1;jettySize=auto;html=1;" edge="1" parent="1" source="w2se8LOjkHO6Jgg3hvdt-5" target="w2se8LOjkHO6Jgg3hvdt-11">
          <mxGeometry relative="1" as="geometry" />
        </mxCell>
        <mxCell id="w2se8LOjkHO6Jgg3hvdt-5" value="步骤和" style="rounded=0;whiteSpace=wrap;html=1;fillColor=#ffe6cc;strokeColor=#d79b00;" vertex="1" parent="1">
          <mxGeometry x="420" y="330" width="120" height="60" as="geometry" />
        </mxCell>
        <mxCell id="w2se8LOjkHO6Jgg3hvdt-6" value="子流程X2" style="rounded=0;whiteSpace=wrap;html=1;fillColor=#d5e8d4;strokeColor=#82b366;" vertex="1" parent="1">
          <mxGeometry x="270" y="330" width="120" height="60" as="geometry" />
        </mxCell>
        <mxCell id="w2se8LOjkHO6Jgg3hvdt-10" value="子流程X3" style="rounded=0;whiteSpace=wrap;html=1;fillColor=#d5e8d4;strokeColor=#82b366;" vertex="1" parent="1">
          <mxGeometry x="330" y="450" width="120" height="60" as="geometry" />
        </mxCell>
        <mxCell id="w2se8LOjkHO6Jgg3hvdt-11" value="子流程X4" style="rounded=0;whiteSpace=wrap;html=1;fillColor=#d5e8d4;strokeColor=#82b366;" vertex="1" parent="1">
          <mxGeometry x="530" y="450" width="120" height="60" as="geometry" />
        </mxCell>
      </root>
    </mxGraphModel>
  </diagram>
</mxfile>
